<?xml version="1.0" encoding="utf-8"?>
<!-- Generator: Adobe Illustrator 23.0.1, SVG Export Plug-In . SVG Version: 6.00 Build 0)  -->
<svg version="1.1" id="Layer_1" xmlns="http://www.w3.org/2000/svg" xmlns:xlink="http://www.w3.org/1999/xlink" x="0px" y="0px"
	 viewBox="0 0 99 61.3" style="enable-background:new 0 0 99 61.3;" xml:space="preserve">
<style type="text/css">
	.st0{fill:#57AB53;}
</style>
<title>bean</title>
<path class="st0" d="M49.8,61.3h-0.6C21.9,61-0.2,44.1,0,23.5C0.1,9.8,7.8,0.8,19.9,0c6.4-0.4,11.7,1.5,16.9,3.3
	C41,4.8,45,6.2,49.1,6.2h0.5c5.1,0,10.2-0.8,15.1-2.4c4-1.3,8.2-2.1,12.4-2.3c5.5-0.2,10.8,1.8,14.7,5.7C96.4,11.8,99,18,99,24.4
	c-0.2,19.2-20.2,35.3-45.5,36.8l0,0C52.3,61.2,51,61.3,49.8,61.3z"/>
</svg>
