<?xml version="1.0" encoding="utf-8"?>
<!-- Generator: Adobe Illustrator 23.0.1, SVG Export Plug-In . SVG Version: 6.00 Build 0)  -->
<svg version="1.1" id="Layer_1" xmlns="http://www.w3.org/2000/svg" xmlns:xlink="http://www.w3.org/1999/xlink" x="0px" y="0px"
	 viewBox="0 0 400 46" style="enable-background:new 0 0 400 46;" xml:space="preserve">
<style type="text/css">
	.st0{fill:#57A953;}
</style>
<path class="st0" d="M35.9,36.2c0,2.6,0.6,2.9,2.3,3.9v0.2H31v-0.2c1.7-1.1,2.3-1.4,2.3-3.9v-7.7c0-2.7-1.1-5.4-4.4-5.4
	c-3.2,0-6,2.7-6,7.4v5.7c0,2.6,0.6,2.9,2.3,3.9v0.2h-7.1v-0.2c1.7-1.1,2.3-1.4,2.3-3.9V15.1c0-2-1.2-2.8-2.7-3.7v-0.2h5.3v15
	c1.1-3.2,3.6-5.1,6.9-5.1c3.9,0,6,2.5,6,6.8V36.2z"/>
<path class="st0" d="M285.2,40.8h-0.5c0.5-2.3,0.5-5.2,0.5-8.7v-17c0-2-1.2-2.8-2.7-3.7v-0.2h5.3v15.1c0.9-2.8,3.4-5.1,7-5.1
	c4.8,0,8.4,3.6,8.4,9.5c0,6.2-4.1,10.1-8.8,10.1c-3.6,0-6.1-2-7-4C287.3,38.4,286.4,39.8,285.2,40.8z M287.8,32.8
	c0,4.4,3.4,6.1,6.1,6.1c3.8,0,6.5-3.2,6.5-8.3c0-4.6-2.5-7.6-6.4-7.6c-3.7,0-6.2,3.5-6.2,7.3V32.8z"/>
<g>
	<g>
		<g>
			<path class="st0" d="M385.7,19.5c-0.1,0-0.1,0-0.2,0c-7.7-0.1-13.9-4.9-13.9-10.7c0-3.9,2.2-6.4,5.6-6.6c1.8-0.1,3.3,0.4,4.8,0.9
				c1.2,0.4,2.3,0.8,3.5,0.8c0.1,0,0.1,0,0.2,0c1.9,0,3.1-0.3,4.3-0.7c1-0.3,2.1-0.6,3.5-0.6c1.6,0,3,0.5,4.2,1.6
				c1.3,1.2,2,3.1,2,4.9c-0.1,5.4-5.7,10-12.8,10.4l0,0C386.4,19.5,386.1,19.5,385.7,19.5z"/>
		</g>
	</g>
</g>
</svg>
