<?xml version="1.0" encoding="utf-8"?>
<!-- Generator: Adobe Illustrator 23.0.1, SVG Export Plug-In . SVG Version: 6.00 Build 0)  -->
<svg version="1.1" id="Layer_1" xmlns="http://www.w3.org/2000/svg" xmlns:xlink="http://www.w3.org/1999/xlink" x="0px" y="0px"
	 viewBox="0 0 400 46" style="enable-background:new 0 0 400 46;" xml:space="preserve">
<style type="text/css">
	.st0{fill:#2C3042;}
	.st1{fill:#57A953;}
</style>
<g>
	<path class="st0" d="M0.6,22.1c3.3-0.7,4.1-3.1,4.7-6.9h1.1v6.4h6.9L13,23H6.4v12.4c0,2.2,1.2,3.4,3.2,3.4c2.1,0,3.4-1.3,3.9-4.3
		l0.7,0.1c-0.2,3.6-2.2,6.1-5.3,6.1s-5.2-1.9-5.2-5.1V23H0.6V22.1z"/>
	<path class="st1" d="M35.9,36.2c0,2.6,0.6,2.9,2.3,3.9v0.2H31v-0.2c1.7-1.1,2.3-1.4,2.3-3.9v-7.7c0-2.7-1.1-5.4-4.4-5.4
		c-3.2,0-6,2.7-6,7.4v5.7c0,2.6,0.6,2.9,2.3,3.9v0.2h-7.1v-0.2c1.7-1.1,2.3-1.4,2.3-3.9V15.1c0-2-1.2-2.8-2.7-3.7v-0.2H23v15
		c1.1-3.2,3.6-5.1,6.9-5.1c3.9,0,6,2.5,6,6.8C35.9,27.9,35.9,36.2,35.9,36.2z"/>
	<path class="st0" d="M59.2,30.6H45.1c0,5.3,2.5,8.3,6.8,8.3c3.1,0,5.3-1.6,6.4-4.7l0.8,0.3c-0.8,3.9-3.5,6.2-7.8,6.2
		c-5,0-9-3.5-9-9.5c0-6.2,3.9-10.1,8.8-10.1C56.2,21.1,59.2,24.6,59.2,30.6z M56.3,29.2c-0.1-3.4-1.2-6.5-5.3-6.5
		c-3.3,0-5.4,2.5-5.9,6.5H56.3z"/>
	<path class="st0" d="M90.3,36.2c0,2.6,0.6,2.9,2.3,3.9v0.2h-7.1v-0.2c1.7-1.1,2.3-1.4,2.3-3.9v-7.7c0-2.7-1.1-5.4-4.4-5.4
		c-3.2,0-6,2.7-6,7.4v5.7c0,2.6,0.6,2.9,2.3,3.9v0.2h-7.1v-0.2c1.7-1.1,2.3-1.4,2.3-3.9V25.5c0-2-1.2-2.8-2.7-3.7v-0.2h5.1l0.2,4.7
		c1.1-3.2,3.6-5.1,6.9-5.1c3.9,0,6,2.5,6,6.8v8.2H90.3z"/>
	<path class="st0" d="M101.4,33.4c0,2.7,1.1,5.5,4.4,5.5c3.2,0,5.8-2.8,5.8-7.5v-6c0-2-1.2-2.8-2.7-3.7v-0.2h5.3v14.7
		c0,2.6,0.6,2.9,2.3,3.9v0.2h-4.8v-4.8c-1.1,3.3-3.4,5.2-6.8,5.2c-3.9,0-6-2.5-6-6.8v-8.5c0-2-1.2-2.8-2.7-3.7v-0.2h5.3v11.9H101.4z
		"/>
	<path class="st0" d="M119.8,22.1c3.3-0.7,4.1-3.1,4.7-6.9h1.1v6.4h6.9l-0.2,1.5h-6.7v12.4c0,2.2,1.2,3.4,3.2,3.4
		c2.1,0,3.4-1.3,3.9-4.3l0.7,0.1c-0.2,3.6-2.2,6.1-5.3,6.1c-3.1,0-5.2-1.9-5.2-5.1V23h-3.1C119.8,23,119.8,22.1,119.8,22.1z"/>
	<path class="st0" d="M142.2,36.6c0,2.2,0.8,2.7,3.8,3.5v0.3h-8.6v-0.2c1.7-1.1,2.3-1.4,2.3-3.9V25.5c0-2-1.2-2.8-2.7-3.7v-0.2h5.1
		l0.2,5.3c1.1-3,3-5.7,6.2-5.7c1.9,0,3,1,3,2.5c0,1.4-1.1,2.2-2.3,2.1c0.1-1.4-0.5-2.3-2-2.3c-2.8,0-5.1,3.9-5.1,8.2v4.9H142.2z"/>
	<path class="st0" d="M160,36.2c0,2.6,0.6,2.9,2.3,3.9v0.2h-7.1v-0.2c1.7-1.1,2.3-1.4,2.3-3.9V25.5c0-2-1.2-2.8-2.7-3.7v-0.2h5.3
		v14.6H160z M158.5,12.7c1.2,0,2.1,0.9,2.1,2.1s-0.9,2.1-2.1,2.1c-1.2,0-2.1-0.9-2.1-2.1C156.4,13.6,157.3,12.7,158.5,12.7z"/>
	<path class="st0" d="M165.6,22.1c3.3-0.7,4.1-3.1,4.7-6.9h1.1v6.4h6.9L178,23h-6.7v12.4c0,2.2,1.2,3.4,3.2,3.4
		c2.1,0,3.4-1.3,3.9-4.3l0.7,0.1c-0.2,3.6-2.2,6.1-5.3,6.1s-5.2-1.9-5.2-5.1V23h-3.1v-0.9H165.6z"/>
	<path class="st0" d="M188.1,36.2c0,2.6,0.6,2.9,2.3,3.9v0.2h-7.1v-0.2c1.7-1.1,2.3-1.4,2.3-3.9V25.5c0-2-1.2-2.8-2.7-3.7v-0.2h5.3
		v14.6H188.1z M186.5,12.7c1.2,0,2.1,0.9,2.1,2.1s-0.9,2.1-2.1,2.1c-1.2,0-2.1-0.9-2.1-2.1C184.4,13.6,185.4,12.7,186.5,12.7z"/>
	<path class="st0" d="M203.6,40.8c-5.4,0-9.2-4.1-9.2-9.8s3.9-9.8,9.2-9.8c5.4,0,9.2,4.1,9.2,9.8S209,40.8,203.6,40.8z M203.6,22.7
		c-4.1,0-6.3,3.3-6.3,8.2s2.2,8.3,6.3,8.3s6.3-3.4,6.3-8.3S207.7,22.7,203.6,22.7z"/>
	<path class="st0" d="M235.2,36.2c0,2.6,0.6,2.9,2.3,3.9v0.2h-7.1v-0.2c1.7-1.1,2.3-1.4,2.3-3.9v-7.7c0-2.7-1.1-5.4-4.4-5.4
		c-3.2,0-6,2.7-6,7.4v5.7c0,2.6,0.6,2.9,2.3,3.9v0.2h-7.1v-0.2c1.7-1.1,2.3-1.4,2.3-3.9V25.5c0-2-1.2-2.8-2.7-3.7v-0.2h5.1l0.2,4.7
		c1.1-3.2,3.6-5.1,6.9-5.1c3.9,0,6,2.5,6,6.8v8.2H235.2z"/>
	<path class="st0" d="M260.6,40c-0.9,0.3-2,0.6-3.2,0.6c-2.2,0-3.3-1.4-3.3-4.2c-0.9,2.5-3.7,4.3-6.8,4.3s-5.6-1.6-5.6-4.8
		c0-4.1,4.4-5.3,9.2-6.2l3.1-0.5V28c0-4-1.4-5.3-4.6-5.3c-2.5,0-4,1.2-4,3.1c0,0.7,0.2,1.2,0.5,1.8c-0.4,0.3-0.9,0.4-1.6,0.4
		c-1.1,0-1.9-0.7-1.9-2.1c0-2.4,2.8-4.8,7.3-4.8c4.6,0,6.9,2.3,6.9,6.4c0,3.9-0.1,6.8-0.1,9c0,2.1,1.3,3,3.9,3V40H260.6z M251,31.1
		c-4.1,0.8-6.4,1.9-6.4,4.7c0,2.2,1.4,3.3,3.7,3.3c2.5,0,5.8-2.2,5.8-6.7v-1.9L251,31.1z"/>
	<path class="st0" d="M268.1,36.2c0,2.6,0.6,2.9,2.3,3.9v0.2h-7.1v-0.2c1.7-1.1,2.3-1.4,2.3-3.9V15.1c0-2-1.2-2.8-2.7-3.7v-0.2h5.3
		L268.1,36.2L268.1,36.2z"/>
	<path class="st1" d="M285.2,40.8h-0.5c0.5-2.3,0.5-5.2,0.5-8.7v-17c0-2-1.2-2.8-2.7-3.7v-0.2h5.3v15.1c0.9-2.8,3.4-5.1,7-5.1
		c4.8,0,8.4,3.6,8.4,9.5c0,6.2-4.1,10.1-8.8,10.1c-3.6,0-6.1-2-7-4C287.3,38.4,286.4,39.8,285.2,40.8z M287.8,32.8
		c0,4.4,3.4,6.1,6.1,6.1c3.8,0,6.5-3.2,6.5-8.3c0-4.6-2.5-7.6-6.4-7.6c-3.7,0-6.2,3.5-6.2,7.3V32.8z"/>
	<path class="st0" d="M325.2,30.6h-14.1c0,5.3,2.5,8.3,6.8,8.3c3.1,0,5.3-1.6,6.4-4.7l0.8,0.3c-0.8,3.9-3.5,6.2-7.8,6.2
		c-5,0-9-3.5-9-9.5c0-6.2,3.9-10.1,8.8-10.1C322.1,21.1,325.2,24.6,325.2,30.6z M322.3,29.2c-0.1-3.4-1.2-6.5-5.3-6.5
		c-3.3,0-5.4,2.5-5.9,6.5H322.3z"/>
	<path class="st0" d="M348.8,40c-0.9,0.3-2,0.6-3.2,0.6c-2.2,0-3.3-1.4-3.3-4.2c-0.9,2.5-3.7,4.3-6.8,4.3c-3.2,0-5.6-1.6-5.6-4.8
		c0-4.1,4.4-5.3,9.2-6.2l3.1-0.5V28c0-4-1.4-5.3-4.6-5.3c-2.5,0-4,1.2-4,3.1c0,0.7,0.2,1.2,0.5,1.8c-0.4,0.3-0.9,0.4-1.6,0.4
		c-1.1,0-1.9-0.7-1.9-2.1c0-2.4,2.8-4.8,7.3-4.8c4.6,0,6.9,2.3,6.9,6.4c0,3.9-0.1,6.8-0.1,9c0,2.1,1.3,3,3.9,3V40H348.8z
		 M339.2,31.1c-4.1,0.8-6.4,1.9-6.4,4.7c0,2.2,1.4,3.3,3.7,3.3c2.5,0,5.8-2.2,5.8-6.7v-1.9L339.2,31.1z"/>
	<path class="st0" d="M369.4,36.2c0,2.6,0.6,2.9,2.3,3.9v0.2h-7.1v-0.2c1.7-1.1,2.3-1.4,2.3-3.9v-7.7c0-2.7-1.1-5.4-4.4-5.4
		c-3.2,0-6,2.7-6,7.4v5.7c0,2.6,0.6,2.9,2.3,3.9v0.2h-7.1v-0.2c1.7-1.1,2.3-1.4,2.3-3.9V25.5c0-2-1.2-2.8-2.7-3.7v-0.2h5.1l0.2,4.7
		c1.1-3.2,3.6-5.1,6.9-5.1c3.9,0,6,2.5,6,6.8L369.4,36.2L369.4,36.2z"/>
</g>
<g>
	<g>
		<g>
			<path class="st1" d="M385.7,19.5c-0.1,0-0.1,0-0.2,0c-7.7-0.1-13.9-4.9-13.9-10.7c0-3.9,2.2-6.4,5.6-6.6c1.8-0.1,3.3,0.4,4.8,0.9
				c1.2,0.4,2.3,0.8,3.5,0.8c0.1,0,0.1,0,0.2,0c1.9,0,3.1-0.3,4.3-0.7c1-0.3,2.1-0.6,3.5-0.6c1.6,0,3,0.5,4.2,1.6
				c1.3,1.2,2,3.1,2,4.9c-0.1,5.4-5.7,10-12.8,10.4l0,0C386.4,19.5,386.1,19.5,385.7,19.5z"/>
		</g>
	</g>
</g>
</svg>
