<?xml version="1.0" standalone="no"?>
<!DOCTYPE svg PUBLIC "-//W3C//DTD SVG 20010904//EN"
 "http://www.w3.org/TR/2001/REC-SVG-20010904/DTD/svg10.dtd">
<svg version="1.0" xmlns="http://www.w3.org/2000/svg"
 width="192.000000pt" height="192.000000pt" viewBox="0 0 192.000000 192.000000"
 preserveAspectRatio="xMidYMid meet">
<metadata>
Created by potrace 1.11, written by Peter Selinger 2001-2013
</metadata>
<g transform="translate(0.000000,192.000000) scale(0.100000,-0.100000)"
fill="#000000" stroke="none">
<path d="M938 1465 c-124 -40 -176 -212 -105 -351 28 -55 112 -139 170 -169
l39 -20 -4 -138 c-2 -82 0 -136 6 -134 5 2 17 17 26 34 l16 30 32 -28 c94 -84
243 -23 271 113 7 32 10 62 7 67 -3 5 27 19 67 31 245 74 374 279 282 449 -57
104 -150 133 -296 92 -102 -28 -194 -27 -290 4 -103 32 -163 38 -221 20z m305
-588 l98 -11 -7 -41 c-13 -78 -49 -122 -106 -132 -41 -6 -97 16 -116 47 -16
27 -26 101 -18 135 6 22 11 26 29 21 12 -4 66 -12 120 -19z"/>
<path d="M276 1148 c-20 -67 -35 -95 -64 -113 -39 -25 -40 -35 -2 -35 l30 0 0
-131 c0 -98 4 -139 16 -164 32 -68 127 -72 171 -6 22 33 31 71 16 71 -5 0 -15
-15 -23 -33 -20 -42 -59 -56 -94 -33 -26 16 -26 17 -26 156 l0 140 65 0 c51 0
65 3 65 15 0 12 -14 15 -65 15 l-65 0 0 59 c0 55 -15 91 -24 59z"/>
<path d="M695 1024 c-16 -8 -40 -27 -52 -42 l-22 -27 -1 38 0 37 -51 0 -52 0
27 -25 c26 -24 26 -26 26 -161 0 -128 -2 -139 -22 -161 l-21 -23 74 1 c70 0
73 1 52 16 -22 14 -23 23 -23 129 0 112 0 114 30 147 17 19 44 37 61 41 34 7
83 -14 93 -39 3 -9 6 -72 6 -140 0 -116 -1 -123 -22 -138 -22 -15 -19 -16 51
-16 l74 -1 -20 23 c-19 19 -22 37 -25 152 -3 105 -7 135 -21 157 -31 46 -107
61 -162 32z"/>
</g>
</svg>
